<?xml version="1.0" encoding="UTF-8"?>
<svg width="52px" height="1020px" viewBox="0 0 52 1020" version="1.1" xmlns="http://www.w3.org/2000/svg" xmlns:xlink="http://www.w3.org/1999/xlink">
    <!-- Generator: Sketch 46.2 (44496) - http://www.bohemiancoding.com/sketch -->
    <title>grid-lines</title>
    <desc>Created with Sketch.</desc>
    <defs></defs>
    <g id="Blank-Slate" stroke="none" stroke-width="1" fill="none" fill-rule="evenodd" stroke-linecap="square">
        <g id="Splash" transform="translate(0.000000, -55.000000)" stroke="#FFFFFF" stroke-width="0.5">
            <g id="grid-lines" transform="translate(-26.000000, 55.000000)">
                <path d="M24.5,0.25 L61.5540161,0.25" id="Line"></path>
                <path d="M24.5,207.25 L61.5540161,207.25" id="Line-Copy-28"></path>
                <path d="M24.5,8.25 L61.5540161,8.25" id="Line-Copy"></path>
                <path d="M24.5,215.25 L61.5540161,215.25" id="Line-Copy-29"></path>
                <path d="M24.5,16.25 L61.5540161,16.25" id="Line-Copy-2"></path>
                <path d="M24.5,223.25 L61.5540161,223.25" id="Line-Copy-30"></path>
                <path d="M24.5,24.25 L61.5540161,24.25" id="Line-Copy-3"></path>
                <path d="M24.5,231.25 L61.5540161,231.25" id="Line-Copy-31"></path>
                <path d="M24.5,32.25 L61.5540161,32.25" id="Line-Copy-4"></path>
                <path d="M24.5,239.25 L61.5540161,239.25" id="Line-Copy-32"></path>
                <path d="M24.5,40.25 L61.5540161,40.25" id="Line-Copy-5"></path>
                <path d="M24.5,247.25 L61.5540161,247.25" id="Line-Copy-33"></path>
                <path d="M24.5,48.25 L61.5540161,48.25" id="Line-Copy-6"></path>
                <path d="M24.5,255.25 L61.5540161,255.25" id="Line-Copy-34"></path>
                <path d="M24.5,56.25 L61.5540161,56.25" id="Line-Copy-7"></path>
                <path d="M24.5,263.25 L61.5540161,263.25" id="Line-Copy-35"></path>
                <path d="M24.5,64.25 L61.5540161,64.25" id="Line-Copy-8"></path>
                <path d="M24.5,271.25 L61.5540161,271.25" id="Line-Copy-36"></path>
                <path d="M24.5,72.25 L61.5540161,72.25" id="Line-Copy-9"></path>
                <path d="M24.5,279.25 L61.5540161,279.25" id="Line-Copy-37"></path>
                <path d="M24.5,80.25 L61.5540161,80.25" id="Line-Copy-10"></path>
                <path d="M24.5,287.25 L61.5540161,287.25" id="Line-Copy-38"></path>
                <path d="M0.5,88.25 L77.5500031,88.25" id="Line-Copy-12"></path>
                <path d="M0.5,295.25 L77.5500031,295.25" id="Line-Copy-40"></path>
                <path d="M24.5,95.25 L61.5540161,95.25" id="Line-Copy-14"></path>
                <path d="M24.5,302.25 L61.5540161,302.25" id="Line-Copy-42"></path>
                <path d="M24.5,103.25 L61.5540161,103.25" id="Line-Copy-15"></path>
                <path d="M24.5,310.25 L61.5540161,310.25" id="Line-Copy-43"></path>
                <path d="M24.5,111.25 L61.5540161,111.25" id="Line-Copy-16"></path>
                <path d="M24.5,318.25 L61.5540161,318.25" id="Line-Copy-44"></path>
                <path d="M24.5,119.25 L61.5540161,119.25" id="Line-Copy-17"></path>
                <path d="M24.5,326.25 L61.5540161,326.25" id="Line-Copy-45"></path>
                <path d="M24.5,127.25 L61.5540161,127.25" id="Line-Copy-18"></path>
                <path d="M24.5,334.25 L61.5540161,334.25" id="Line-Copy-46"></path>
                <path d="M24.5,135.25 L61.5540161,135.25" id="Line-Copy-19"></path>
                <path d="M24.5,342.25 L61.5540161,342.25" id="Line-Copy-47"></path>
                <path d="M24.5,143.25 L61.5540161,143.25" id="Line-Copy-20"></path>
                <path d="M24.5,350.25 L61.5540161,350.25" id="Line-Copy-48"></path>
                <path d="M24.5,151.25 L61.5540161,151.25" id="Line-Copy-21"></path>
                <path d="M24.5,358.25 L61.5540161,358.25" id="Line-Copy-49"></path>
                <path d="M24.5,159.25 L61.5540161,159.25" id="Line-Copy-22"></path>
                <path d="M24.5,366.25 L61.5540161,366.25" id="Line-Copy-50"></path>
                <path d="M24.5,167.25 L61.5540161,167.25" id="Line-Copy-23"></path>
                <path d="M24.5,374.25 L61.5540161,374.25" id="Line-Copy-51"></path>
                <path d="M24.5,175.25 L61.5540161,175.25" id="Line-Copy-24"></path>
                <path d="M24.5,382.25 L61.5540161,382.25" id="Line-Copy-52"></path>
                <path d="M24.5,183.25 L61.5540161,183.25" id="Line-Copy-25"></path>
                <path d="M24.5,390.25 L61.5540161,390.25" id="Line-Copy-53"></path>
                <path d="M24.5,191.25 L61.5540161,191.25" id="Line-Copy-26"></path>
                <path d="M24.5,398.25 L61.5540161,398.25" id="Line-Copy-54"></path>
                <path d="M24.5,199.25 L61.5540161,199.25" id="Line-Copy-27"></path>
                <path d="M24.5,406.25 L61.5540161,406.25" id="Line-Copy-55"></path>
                <path d="M24.5,414.25 L61.5540161,414.25" id="Line-Copy-83"></path>
                <path d="M24.5,422.25 L61.5540161,422.25" id="Line-Copy-82"></path>
                <path d="M24.5,430.25 L61.5540161,430.25" id="Line-Copy-81"></path>
                <path d="M24.5,438.25 L61.5540161,438.25" id="Line-Copy-80"></path>
                <path d="M24.5,446.25 L61.5540161,446.25" id="Line-Copy-79"></path>
                <path d="M24.5,454.25 L61.5540161,454.25" id="Line-Copy-78"></path>
                <path d="M24.5,462.25 L61.5540161,462.25" id="Line-Copy-77"></path>
                <path d="M24.5,470.25 L61.5540161,470.25" id="Line-Copy-76"></path>
                <path d="M24.5,478.25 L61.5540161,478.25" id="Line-Copy-75"></path>
                <path d="M24.5,486.25 L61.5540161,486.25" id="Line-Copy-74"></path>
                <path d="M24.5,494.25 L61.5540161,494.25" id="Line-Copy-73"></path>
                <path d="M0.5,502.25 L77.5500031,502.25" id="Line-Copy-71"></path>
                <path d="M24.5,509.25 L61.5540161,509.25" id="Line-Copy-69"></path>
                <path d="M24.5,517.25 L61.5540161,517.25" id="Line-Copy-68"></path>
                <path d="M24.5,525.25 L61.5540161,525.25" id="Line-Copy-67"></path>
                <path d="M24.5,533.25 L61.5540161,533.25" id="Line-Copy-66"></path>
                <path d="M24.5,541.25 L61.5540161,541.25" id="Line-Copy-65"></path>
                <path d="M24.5,549.25 L61.5540161,549.25" id="Line-Copy-64"></path>
                <path d="M24.5,557.25 L61.5540161,557.25" id="Line-Copy-63"></path>
                <path d="M24.5,565.25 L61.5540161,565.25" id="Line-Copy-62"></path>
                <path d="M24.5,573.25 L61.5540161,573.25" id="Line-Copy-61"></path>
                <path d="M24.5,581.25 L61.5540161,581.25" id="Line-Copy-60"></path>
                <path d="M24.5,589.25 L61.5540161,589.25" id="Line-Copy-59"></path>
                <path d="M24.5,597.25 L61.5540161,597.25" id="Line-Copy-58"></path>
                <path d="M24.5,605.25 L61.5540161,605.25" id="Line-Copy-57"></path>
                <path d="M24.5,613.25 L61.5540161,613.25" id="Line-Copy-56"></path>
                <path d="M24.5,621.25 L61.5540161,621.25" id="Line-Copy-111"></path>
                <path d="M24.5,629.25 L61.5540161,629.25" id="Line-Copy-110"></path>
                <path d="M24.5,637.25 L61.5540161,637.25" id="Line-Copy-109"></path>
                <path d="M24.5,645.25 L61.5540161,645.25" id="Line-Copy-108"></path>
                <path d="M24.5,653.25 L61.5540161,653.25" id="Line-Copy-107"></path>
                <path d="M24.5,661.25 L61.5540161,661.25" id="Line-Copy-106"></path>
                <path d="M24.5,669.25 L61.5540161,669.25" id="Line-Copy-105"></path>
                <path d="M24.5,677.25 L61.5540161,677.25" id="Line-Copy-104"></path>
                <path d="M24.5,685.25 L61.5540161,685.25" id="Line-Copy-103"></path>
                <path d="M24.5,693.25 L61.5540161,693.25" id="Line-Copy-102"></path>
                <path d="M24.5,701.25 L61.5540161,701.25" id="Line-Copy-101"></path>
                <path d="M0.5,709.25 L77.5500031,709.25" id="Line-Copy-99"></path>
                <path d="M24.5,716.25 L61.5540161,716.25" id="Line-Copy-97"></path>
                <path d="M24.5,724.25 L61.5540161,724.25" id="Line-Copy-96"></path>
                <path d="M24.5,732.25 L61.5540161,732.25" id="Line-Copy-95"></path>
                <path d="M24.5,740.25 L61.5540161,740.25" id="Line-Copy-94"></path>
                <path d="M24.5,748.25 L61.5540161,748.25" id="Line-Copy-93"></path>
                <path d="M24.5,756.25 L61.5540161,756.25" id="Line-Copy-92"></path>
                <path d="M24.5,764.25 L61.5540161,764.25" id="Line-Copy-91"></path>
                <path d="M24.5,772.25 L61.5540161,772.25" id="Line-Copy-90"></path>
                <path d="M24.5,780.25 L61.5540161,780.25" id="Line-Copy-89"></path>
                <path d="M24.5,788.25 L61.5540161,788.25" id="Line-Copy-88"></path>
                <path d="M24.5,796.25 L61.5540161,796.25" id="Line-Copy-87"></path>
                <path d="M24.5,804.25 L61.5540161,804.25" id="Line-Copy-86"></path>
                <path d="M24.5,812.25 L61.5540161,812.25" id="Line-Copy-85"></path>
                <path d="M24.5,820.25 L61.5540161,820.25" id="Line-Copy-84"></path>
                <path d="M24.5,828.25 L61.5540161,828.25" id="Line-Copy-139"></path>
                <path d="M24.5,836.25 L61.5540161,836.25" id="Line-Copy-138"></path>
                <path d="M24.5,844.25 L61.5540161,844.25" id="Line-Copy-137"></path>
                <path d="M24.5,852.25 L61.5540161,852.25" id="Line-Copy-136"></path>
                <path d="M24.5,860.25 L61.5540161,860.25" id="Line-Copy-135"></path>
                <path d="M24.5,868.25 L61.5540161,868.25" id="Line-Copy-134"></path>
                <path d="M24.5,876.25 L61.5540161,876.25" id="Line-Copy-133"></path>
                <path d="M24.5,884.25 L61.5540161,884.25" id="Line-Copy-132"></path>
                <path d="M24.5,892.25 L61.5540161,892.25" id="Line-Copy-131"></path>
                <path d="M24.5,900.25 L61.5540161,900.25" id="Line-Copy-130"></path>
                <path d="M24.5,908.25 L61.5540161,908.25" id="Line-Copy-129"></path>
                <path d="M0.5,916.25 L77.5500031,916.25" id="Line-Copy-127"></path>
                <path d="M24.5,923.25 L61.5540161,923.25" id="Line-Copy-125"></path>
                <path d="M24.5,931.25 L61.5540161,931.25" id="Line-Copy-124"></path>
                <path d="M24.5,939.25 L61.5540161,939.25" id="Line-Copy-123"></path>
                <path d="M24.5,947.25 L61.5540161,947.25" id="Line-Copy-122"></path>
                <path d="M24.5,955.25 L61.5540161,955.25" id="Line-Copy-121"></path>
                <path d="M24.5,963.25 L61.5540161,963.25" id="Line-Copy-120"></path>
                <path d="M24.5,971.25 L61.5540161,971.25" id="Line-Copy-119"></path>
                <path d="M24.5,979.25 L61.5540161,979.25" id="Line-Copy-118"></path>
                <path d="M24.5,987.25 L61.5540161,987.25" id="Line-Copy-117"></path>
                <path d="M24.5,995.25 L61.5540161,995.25" id="Line-Copy-116"></path>
                <path d="M24.5,1003.25 L61.5540161,1003.25" id="Line-Copy-115"></path>
                <path d="M24.5,1011.25 L61.5540161,1011.25" id="Line-Copy-114"></path>
                <path d="M24.5,1019.25 L61.5540161,1019.25" id="Line-Copy-113"></path>
            </g>
        </g>
    </g>
</svg>