<?xml version="1.0" encoding="UTF-8"?>
<svg width="199px" height="2551px" viewBox="0 0 199 2551" version="1.1" xmlns="http://www.w3.org/2000/svg" xmlns:xlink="http://www.w3.org/1999/xlink">
    <!-- Generator: Sketch 48.2 (47327) - http://www.bohemiancoding.com/sketch -->
    <title>TestLineTicks</title>
    <desc>Created with Sketch.</desc>
    <defs></defs>
    <g id="Page-1" stroke="none" stroke-width="1" fill="none" fill-rule="evenodd">
        <g id="TestLineTicks">
            <rect id="Rectangle" fill="#FF0000" x="0" y="0" width="149" height="1"></rect>
            <rect id="Rectangle-Copy" fill="#FF0000" x="0" y="10" width="149" height="1"></rect>
            <rect id="Rectangle-Copy-3" fill="#FF0000" x="0" y="20" width="149" height="1"></rect>
            <rect id="Rectangle-Copy-2" fill="#FF0000" x="0" y="30" width="149" height="1"></rect>
            <rect id="Rectangle-Copy-7" fill="#FF0000" x="0" y="40" width="149" height="1"></rect>
            <rect id="Rectangle-Copy-6" fill="#FF0000" x="0" y="50" width="149" height="1"></rect>
            <rect id="Rectangle-Copy-5" fill="#FF0000" x="0" y="60" width="149" height="1"></rect>
            <rect id="Rectangle-Copy-4" fill="#FF0000" x="0" y="70" width="149" height="1"></rect>
            <rect id="Rectangle-Copy-15" fill="#FF0000" x="0" y="80" width="149" height="1"></rect>
            <rect id="Rectangle-Copy-14" fill="#FF0000" x="0" y="90" width="149" height="1"></rect>
            <rect id="Rectangle-Copy-13" fill="#FF0000" x="0" y="100" width="149" height="1"></rect>
            <rect id="Rectangle-Copy-12" fill="#FF0000" x="0" y="110" width="149" height="1"></rect>
            <rect id="Rectangle-Copy-11" fill="#FF0000" x="0" y="120" width="149" height="1"></rect>
            <rect id="Rectangle-Copy-10" fill="#FF0000" x="0" y="130" width="149" height="1"></rect>
            <rect id="Rectangle-Copy-9" fill="#FF0000" x="0" y="140" width="149" height="1"></rect>
            <rect id="Rectangle-Copy-8" fill="#FF0000" x="0" y="150" width="149" height="1"></rect>
            <rect id="Rectangle-Copy-31" fill="#FF0000" x="0" y="160" width="149" height="1"></rect>
            <rect id="Rectangle-Copy-30" fill="#FF0000" x="0" y="170" width="149" height="1"></rect>
            <rect id="Rectangle-Copy-29" fill="#FF0000" x="0" y="180" width="149" height="1"></rect>
            <rect id="Rectangle-Copy-28" fill="#FF0000" x="0" y="190" width="149" height="1"></rect>
            <rect id="Rectangle-Copy-27" fill="#FF0000" x="0" y="200" width="149" height="1"></rect>
            <rect id="Rectangle-Copy-26" fill="#FF0000" x="0" y="210" width="149" height="1"></rect>
            <rect id="Rectangle-Copy-25" fill="#FF0000" x="0" y="220" width="149" height="1"></rect>
            <rect id="Rectangle-Copy-24" fill="#FF0000" x="0" y="230" width="149" height="1"></rect>
            <rect id="Rectangle-Copy-23" fill="#FF0000" x="0" y="240" width="149" height="1"></rect>
            <rect id="Rectangle-Copy-22" fill="#FF0000" x="0" y="250" width="149" height="1"></rect>
            <rect id="Rectangle-Copy-21" fill="#FF0000" x="0" y="260" width="149" height="1"></rect>
            <rect id="Rectangle-Copy-20" fill="#FF0000" x="0" y="270" width="149" height="1"></rect>
            <rect id="Rectangle-Copy-19" fill="#FF0000" x="0" y="280" width="149" height="1"></rect>
            <rect id="Rectangle-Copy-18" fill="#FF0000" x="0" y="290" width="149" height="1"></rect>
            <rect id="Rectangle-Copy-17" fill="#FF0000" x="0" y="300" width="149" height="1"></rect>
            <rect id="Rectangle-Copy-16" fill="#FF0000" x="0" y="310" width="149" height="1"></rect>
            <rect id="Rectangle-Copy-63" fill="#FF0000" x="0" y="320" width="149" height="1"></rect>
            <rect id="Rectangle-Copy-62" fill="#FF0000" x="0" y="330" width="149" height="1"></rect>
            <rect id="Rectangle-Copy-61" fill="#FF0000" x="0" y="340" width="149" height="1"></rect>
            <rect id="Rectangle-Copy-60" fill="#FF0000" x="0" y="350" width="149" height="1"></rect>
            <rect id="Rectangle-Copy-59" fill="#FF0000" x="0" y="360" width="149" height="1"></rect>
            <rect id="Rectangle-Copy-58" fill="#FF0000" x="0" y="370" width="149" height="1"></rect>
            <rect id="Rectangle-Copy-57" fill="#FF0000" x="0" y="380" width="149" height="1"></rect>
            <rect id="Rectangle-Copy-56" fill="#FF0000" x="0" y="390" width="149" height="1"></rect>
            <rect id="Rectangle-Copy-55" fill="#FF0000" x="0" y="400" width="149" height="1"></rect>
            <rect id="Rectangle-Copy-54" fill="#FF0000" x="0" y="410" width="149" height="1"></rect>
            <rect id="Rectangle-Copy-53" fill="#FF0000" x="0" y="420" width="149" height="1"></rect>
            <rect id="Rectangle-Copy-52" fill="#FF0000" x="0" y="430" width="149" height="1"></rect>
            <rect id="Rectangle-Copy-51" fill="#FF0000" x="0" y="440" width="149" height="1"></rect>
            <rect id="Rectangle-Copy-50" fill="#FF0000" x="0" y="450" width="149" height="1"></rect>
            <rect id="Rectangle-Copy-49" fill="#FF0000" x="0" y="460" width="149" height="1"></rect>
            <rect id="Rectangle-Copy-48" fill="#FF0000" x="0" y="470" width="149" height="1"></rect>
            <rect id="Rectangle-Copy-47" fill="#FF0000" x="0" y="480" width="149" height="1"></rect>
            <rect id="Rectangle-Copy-46" fill="#FF0000" x="0" y="490" width="149" height="1"></rect>
            <rect id="Rectangle-Copy-45" fill="#FF0000" x="0" y="500" width="149" height="1"></rect>
            <rect id="Rectangle-Copy-44" fill="#FF0000" x="0" y="510" width="149" height="1"></rect>
            <rect id="Rectangle-Copy-43" fill="#FF0000" x="0" y="520" width="149" height="1"></rect>
            <rect id="Rectangle-Copy-42" fill="#FF0000" x="0" y="530" width="149" height="1"></rect>
            <rect id="Rectangle-Copy-41" fill="#FF0000" x="0" y="540" width="149" height="1"></rect>
            <rect id="Rectangle-Copy-40" fill="#FF0000" x="0" y="550" width="149" height="1"></rect>
            <rect id="Rectangle-Copy-39" fill="#FF0000" x="0" y="560" width="149" height="1"></rect>
            <rect id="Rectangle-Copy-38" fill="#FF0000" x="0" y="570" width="149" height="1"></rect>
            <rect id="Rectangle-Copy-37" fill="#FF0000" x="0" y="580" width="149" height="1"></rect>
            <rect id="Rectangle-Copy-36" fill="#FF0000" x="0" y="590" width="149" height="1"></rect>
            <rect id="Rectangle-Copy-35" fill="#FF0000" x="0" y="600" width="149" height="1"></rect>
            <rect id="Rectangle-Copy-34" fill="#FF0000" x="0" y="610" width="149" height="1"></rect>
            <rect id="Rectangle-Copy-33" fill="#FF0000" x="0" y="620" width="149" height="1"></rect>
            <rect id="Rectangle-Copy-32" fill="#FF0000" x="0" y="630" width="149" height="1"></rect>
            <rect id="Rectangle-Copy-127" fill="#FF0000" x="0" y="640" width="149" height="1"></rect>
            <rect id="Rectangle-Copy-126" fill="#FF0000" x="0" y="650" width="149" height="1"></rect>
            <rect id="Rectangle-Copy-125" fill="#FF0000" x="0" y="660" width="149" height="1"></rect>
            <rect id="Rectangle-Copy-124" fill="#FF0000" x="0" y="670" width="149" height="1"></rect>
            <rect id="Rectangle-Copy-123" fill="#FF0000" x="0" y="680" width="149" height="1"></rect>
            <rect id="Rectangle-Copy-122" fill="#FF0000" x="0" y="690" width="149" height="1"></rect>
            <rect id="Rectangle-Copy-121" fill="#FF0000" x="0" y="700" width="149" height="1"></rect>
            <rect id="Rectangle-Copy-120" fill="#FF0000" x="0" y="710" width="149" height="1"></rect>
            <rect id="Rectangle-Copy-119" fill="#FF0000" x="0" y="720" width="149" height="1"></rect>
            <rect id="Rectangle-Copy-118" fill="#FF0000" x="0" y="730" width="149" height="1"></rect>
            <rect id="Rectangle-Copy-117" fill="#FF0000" x="0" y="740" width="149" height="1"></rect>
            <rect id="Rectangle-Copy-116" fill="#FF0000" x="0" y="750" width="149" height="1"></rect>
            <rect id="Rectangle-Copy-115" fill="#FF0000" x="0" y="760" width="149" height="1"></rect>
            <rect id="Rectangle-Copy-114" fill="#FF0000" x="0" y="770" width="149" height="1"></rect>
            <rect id="Rectangle-Copy-113" fill="#FF0000" x="0" y="780" width="149" height="1"></rect>
            <rect id="Rectangle-Copy-112" fill="#FF0000" x="0" y="790" width="149" height="1"></rect>
            <rect id="Rectangle-Copy-111" fill="#FF0000" x="0" y="800" width="149" height="1"></rect>
            <rect id="Rectangle-Copy-110" fill="#FF0000" x="0" y="810" width="149" height="1"></rect>
            <rect id="Rectangle-Copy-109" fill="#FF0000" x="0" y="820" width="149" height="1"></rect>
            <rect id="Rectangle-Copy-108" fill="#FF0000" x="0" y="830" width="149" height="1"></rect>
            <rect id="Rectangle-Copy-107" fill="#FF0000" x="0" y="840" width="149" height="1"></rect>
            <rect id="Rectangle-Copy-106" fill="#FF0000" x="0" y="850" width="149" height="1"></rect>
            <rect id="Rectangle-Copy-105" fill="#FF0000" x="0" y="860" width="149" height="1"></rect>
            <rect id="Rectangle-Copy-104" fill="#FF0000" x="0" y="870" width="149" height="1"></rect>
            <rect id="Rectangle-Copy-103" fill="#FF0000" x="0" y="880" width="149" height="1"></rect>
            <rect id="Rectangle-Copy-102" fill="#FF0000" x="0" y="890" width="149" height="1"></rect>
            <rect id="Rectangle-Copy-101" fill="#FF0000" x="0" y="900" width="149" height="1"></rect>
            <rect id="Rectangle-Copy-100" fill="#FF0000" x="0" y="910" width="149" height="1"></rect>
            <rect id="Rectangle-Copy-99" fill="#FF0000" x="0" y="920" width="149" height="1"></rect>
            <rect id="Rectangle-Copy-98" fill="#FF0000" x="0" y="930" width="149" height="1"></rect>
            <rect id="Rectangle-Copy-97" fill="#FF0000" x="0" y="940" width="149" height="1"></rect>
            <rect id="Rectangle-Copy-96" fill="#FF0000" x="0" y="950" width="149" height="1"></rect>
            <rect id="Rectangle-Copy-95" fill="#FF0000" x="0" y="960" width="149" height="1"></rect>
            <rect id="Rectangle-Copy-94" fill="#FF0000" x="0" y="970" width="149" height="1"></rect>
            <rect id="Rectangle-Copy-93" fill="#FF0000" x="0" y="980" width="149" height="1"></rect>
            <rect id="Rectangle-Copy-92" fill="#FF0000" x="0" y="990" width="149" height="1"></rect>
            <rect id="Rectangle-Copy-91" fill="#FF0000" x="0" y="1000" width="149" height="1"></rect>
            <rect id="Rectangle-Copy-90" fill="#FF0000" x="0" y="1010" width="149" height="1"></rect>
            <rect id="Rectangle-Copy-89" fill="#FF0000" x="0" y="1020" width="149" height="1"></rect>
            <rect id="Rectangle-Copy-88" fill="#FF0000" x="0" y="1030" width="149" height="1"></rect>
            <rect id="Rectangle-Copy-87" fill="#FF0000" x="0" y="1040" width="149" height="1"></rect>
            <rect id="Rectangle-Copy-86" fill="#FF0000" x="0" y="1050" width="149" height="1"></rect>
            <rect id="Rectangle-Copy-85" fill="#FF0000" x="0" y="1060" width="149" height="1"></rect>
            <rect id="Rectangle-Copy-84" fill="#FF0000" x="0" y="1070" width="149" height="1"></rect>
            <rect id="Rectangle-Copy-83" fill="#FF0000" x="0" y="1080" width="149" height="1"></rect>
            <rect id="Rectangle-Copy-82" fill="#FF0000" x="0" y="1090" width="149" height="1"></rect>
            <rect id="Rectangle-Copy-81" fill="#FF0000" x="0" y="1100" width="149" height="1"></rect>
            <rect id="Rectangle-Copy-80" fill="#FF0000" x="0" y="1110" width="149" height="1"></rect>
            <rect id="Rectangle-Copy-79" fill="#FF0000" x="0" y="1120" width="149" height="1"></rect>
            <rect id="Rectangle-Copy-78" fill="#FF0000" x="0" y="1130" width="149" height="1"></rect>
            <rect id="Rectangle-Copy-77" fill="#FF0000" x="0" y="1140" width="149" height="1"></rect>
            <rect id="Rectangle-Copy-76" fill="#FF0000" x="0" y="1150" width="149" height="1"></rect>
            <rect id="Rectangle-Copy-75" fill="#FF0000" x="0" y="1160" width="149" height="1"></rect>
            <rect id="Rectangle-Copy-74" fill="#FF0000" x="0" y="1170" width="149" height="1"></rect>
            <rect id="Rectangle-Copy-73" fill="#FF0000" x="0" y="1180" width="149" height="1"></rect>
            <rect id="Rectangle-Copy-72" fill="#FF0000" x="0" y="1190" width="149" height="1"></rect>
            <rect id="Rectangle-Copy-71" fill="#FF0000" x="0" y="1200" width="149" height="1"></rect>
            <rect id="Rectangle-Copy-70" fill="#FF0000" x="0" y="1210" width="149" height="1"></rect>
            <rect id="Rectangle-Copy-69" fill="#FF0000" x="0" y="1220" width="149" height="1"></rect>
            <rect id="Rectangle-Copy-68" fill="#FF0000" x="0" y="1230" width="149" height="1"></rect>
            <rect id="Rectangle-Copy-67" fill="#FF0000" x="0" y="1240" width="149" height="1"></rect>
            <rect id="Rectangle-Copy-66" fill="#FF0000" x="0" y="1250" width="149" height="1"></rect>
            <rect id="Rectangle-Copy-65" fill="#FF0000" x="0" y="1260" width="149" height="1"></rect>
            <rect id="Rectangle-Copy-64" fill="#FF0000" x="0" y="1270" width="149" height="1"></rect>
            <rect id="Rectangle-Copy-255" fill="#7ED321" x="50" y="1280" width="149" height="1"></rect>
            <rect id="Rectangle-Copy-254" fill="#7ED321" x="50" y="1290" width="149" height="1"></rect>
            <rect id="Rectangle-Copy-253" fill="#7ED321" x="50" y="1300" width="149" height="1"></rect>
            <rect id="Rectangle-Copy-252" fill="#7ED321" x="50" y="1310" width="149" height="1"></rect>
            <rect id="Rectangle-Copy-251" fill="#7ED321" x="50" y="1320" width="149" height="1"></rect>
            <rect id="Rectangle-Copy-250" fill="#7ED321" x="50" y="1330" width="149" height="1"></rect>
            <rect id="Rectangle-Copy-249" fill="#7ED321" x="50" y="1340" width="149" height="1"></rect>
            <rect id="Rectangle-Copy-248" fill="#7ED321" x="50" y="1350" width="149" height="1"></rect>
            <rect id="Rectangle-Copy-247" fill="#7ED321" x="50" y="1360" width="149" height="1"></rect>
            <rect id="Rectangle-Copy-246" fill="#7ED321" x="50" y="1370" width="149" height="1"></rect>
            <rect id="Rectangle-Copy-245" fill="#7ED321" x="50" y="1380" width="149" height="1"></rect>
            <rect id="Rectangle-Copy-244" fill="#7ED321" x="50" y="1390" width="149" height="1"></rect>
            <rect id="Rectangle-Copy-243" fill="#7ED321" x="50" y="1400" width="149" height="1"></rect>
            <rect id="Rectangle-Copy-242" fill="#7ED321" x="50" y="1410" width="149" height="1"></rect>
            <rect id="Rectangle-Copy-241" fill="#7ED321" x="50" y="1420" width="149" height="1"></rect>
            <rect id="Rectangle-Copy-240" fill="#7ED321" x="50" y="1430" width="149" height="1"></rect>
            <rect id="Rectangle-Copy-239" fill="#7ED321" x="50" y="1440" width="149" height="1"></rect>
            <rect id="Rectangle-Copy-238" fill="#7ED321" x="50" y="1450" width="149" height="1"></rect>
            <rect id="Rectangle-Copy-237" fill="#7ED321" x="50" y="1460" width="149" height="1"></rect>
            <rect id="Rectangle-Copy-236" fill="#7ED321" x="50" y="1470" width="149" height="1"></rect>
            <rect id="Rectangle-Copy-235" fill="#7ED321" x="50" y="1480" width="149" height="1"></rect>
            <rect id="Rectangle-Copy-234" fill="#7ED321" x="50" y="1490" width="149" height="1"></rect>
            <rect id="Rectangle-Copy-233" fill="#7ED321" x="50" y="1500" width="149" height="1"></rect>
            <rect id="Rectangle-Copy-232" fill="#7ED321" x="50" y="1510" width="149" height="1"></rect>
            <rect id="Rectangle-Copy-231" fill="#7ED321" x="50" y="1520" width="149" height="1"></rect>
            <rect id="Rectangle-Copy-230" fill="#7ED321" x="50" y="1530" width="149" height="1"></rect>
            <rect id="Rectangle-Copy-229" fill="#7ED321" x="50" y="1540" width="149" height="1"></rect>
            <rect id="Rectangle-Copy-228" fill="#7ED321" x="50" y="1550" width="149" height="1"></rect>
            <rect id="Rectangle-Copy-227" fill="#7ED321" x="50" y="1560" width="149" height="1"></rect>
            <rect id="Rectangle-Copy-226" fill="#7ED321" x="50" y="1570" width="149" height="1"></rect>
            <rect id="Rectangle-Copy-225" fill="#7ED321" x="50" y="1580" width="149" height="1"></rect>
            <rect id="Rectangle-Copy-224" fill="#7ED321" x="50" y="1590" width="149" height="1"></rect>
            <rect id="Rectangle-Copy-223" fill="#7ED321" x="50" y="1600" width="149" height="1"></rect>
            <rect id="Rectangle-Copy-222" fill="#7ED321" x="50" y="1610" width="149" height="1"></rect>
            <rect id="Rectangle-Copy-221" fill="#7ED321" x="50" y="1620" width="149" height="1"></rect>
            <rect id="Rectangle-Copy-220" fill="#7ED321" x="50" y="1630" width="149" height="1"></rect>
            <rect id="Rectangle-Copy-219" fill="#7ED321" x="50" y="1640" width="149" height="1"></rect>
            <rect id="Rectangle-Copy-218" fill="#7ED321" x="50" y="1650" width="149" height="1"></rect>
            <rect id="Rectangle-Copy-217" fill="#7ED321" x="50" y="1660" width="149" height="1"></rect>
            <rect id="Rectangle-Copy-216" fill="#7ED321" x="50" y="1670" width="149" height="1"></rect>
            <rect id="Rectangle-Copy-215" fill="#7ED321" x="50" y="1680" width="149" height="1"></rect>
            <rect id="Rectangle-Copy-214" fill="#7ED321" x="50" y="1690" width="149" height="1"></rect>
            <rect id="Rectangle-Copy-213" fill="#7ED321" x="50" y="1700" width="149" height="1"></rect>
            <rect id="Rectangle-Copy-212" fill="#7ED321" x="50" y="1710" width="149" height="1"></rect>
            <rect id="Rectangle-Copy-211" fill="#7ED321" x="50" y="1720" width="149" height="1"></rect>
            <rect id="Rectangle-Copy-210" fill="#7ED321" x="50" y="1730" width="149" height="1"></rect>
            <rect id="Rectangle-Copy-209" fill="#7ED321" x="50" y="1740" width="149" height="1"></rect>
            <rect id="Rectangle-Copy-208" fill="#7ED321" x="50" y="1750" width="149" height="1"></rect>
            <rect id="Rectangle-Copy-207" fill="#7ED321" x="50" y="1760" width="149" height="1"></rect>
            <rect id="Rectangle-Copy-206" fill="#7ED321" x="50" y="1770" width="149" height="1"></rect>
            <rect id="Rectangle-Copy-205" fill="#7ED321" x="50" y="1780" width="149" height="1"></rect>
            <rect id="Rectangle-Copy-204" fill="#7ED321" x="50" y="1790" width="149" height="1"></rect>
            <rect id="Rectangle-Copy-203" fill="#7ED321" x="50" y="1800" width="149" height="1"></rect>
            <rect id="Rectangle-Copy-202" fill="#7ED321" x="50" y="1810" width="149" height="1"></rect>
            <rect id="Rectangle-Copy-201" fill="#7ED321" x="50" y="1820" width="149" height="1"></rect>
            <rect id="Rectangle-Copy-200" fill="#7ED321" x="50" y="1830" width="149" height="1"></rect>
            <rect id="Rectangle-Copy-199" fill="#7ED321" x="50" y="1840" width="149" height="1"></rect>
            <rect id="Rectangle-Copy-198" fill="#7ED321" x="50" y="1850" width="149" height="1"></rect>
            <rect id="Rectangle-Copy-197" fill="#7ED321" x="50" y="1860" width="149" height="1"></rect>
            <rect id="Rectangle-Copy-196" fill="#7ED321" x="50" y="1870" width="149" height="1"></rect>
            <rect id="Rectangle-Copy-195" fill="#7ED321" x="50" y="1880" width="149" height="1"></rect>
            <rect id="Rectangle-Copy-194" fill="#7ED321" x="50" y="1890" width="149" height="1"></rect>
            <rect id="Rectangle-Copy-193" fill="#7ED321" x="50" y="1900" width="149" height="1"></rect>
            <rect id="Rectangle-Copy-192" fill="#7ED321" x="50" y="1910" width="149" height="1"></rect>
            <rect id="Rectangle-Copy-191" fill="#7ED321" x="50" y="1920" width="149" height="1"></rect>
            <rect id="Rectangle-Copy-190" fill="#7ED321" x="50" y="1930" width="149" height="1"></rect>
            <rect id="Rectangle-Copy-189" fill="#7ED321" x="50" y="1940" width="149" height="1"></rect>
            <rect id="Rectangle-Copy-188" fill="#7ED321" x="50" y="1950" width="149" height="1"></rect>
            <rect id="Rectangle-Copy-187" fill="#7ED321" x="50" y="1960" width="149" height="1"></rect>
            <rect id="Rectangle-Copy-186" fill="#7ED321" x="50" y="1970" width="149" height="1"></rect>
            <rect id="Rectangle-Copy-185" fill="#7ED321" x="50" y="1980" width="149" height="1"></rect>
            <rect id="Rectangle-Copy-184" fill="#7ED321" x="50" y="1990" width="149" height="1"></rect>
            <rect id="Rectangle-Copy-183" fill="#7ED321" x="50" y="2000" width="149" height="1"></rect>
            <rect id="Rectangle-Copy-182" fill="#7ED321" x="50" y="2010" width="149" height="1"></rect>
            <rect id="Rectangle-Copy-181" fill="#7ED321" x="50" y="2020" width="149" height="1"></rect>
            <rect id="Rectangle-Copy-180" fill="#7ED321" x="50" y="2030" width="149" height="1"></rect>
            <rect id="Rectangle-Copy-179" fill="#7ED321" x="50" y="2040" width="149" height="1"></rect>
            <rect id="Rectangle-Copy-178" fill="#7ED321" x="50" y="2050" width="149" height="1"></rect>
            <rect id="Rectangle-Copy-177" fill="#7ED321" x="50" y="2060" width="149" height="1"></rect>
            <rect id="Rectangle-Copy-176" fill="#7ED321" x="50" y="2070" width="149" height="1"></rect>
            <rect id="Rectangle-Copy-175" fill="#7ED321" x="50" y="2080" width="149" height="1"></rect>
            <rect id="Rectangle-Copy-174" fill="#7ED321" x="50" y="2090" width="149" height="1"></rect>
            <rect id="Rectangle-Copy-173" fill="#7ED321" x="50" y="2100" width="149" height="1"></rect>
            <rect id="Rectangle-Copy-172" fill="#7ED321" x="50" y="2110" width="149" height="1"></rect>
            <rect id="Rectangle-Copy-171" fill="#7ED321" x="50" y="2120" width="149" height="1"></rect>
            <rect id="Rectangle-Copy-170" fill="#7ED321" x="50" y="2130" width="149" height="1"></rect>
            <rect id="Rectangle-Copy-169" fill="#7ED321" x="50" y="2140" width="149" height="1"></rect>
            <rect id="Rectangle-Copy-168" fill="#7ED321" x="50" y="2150" width="149" height="1"></rect>
            <rect id="Rectangle-Copy-167" fill="#7ED321" x="50" y="2160" width="149" height="1"></rect>
            <rect id="Rectangle-Copy-166" fill="#7ED321" x="50" y="2170" width="149" height="1"></rect>
            <rect id="Rectangle-Copy-165" fill="#7ED321" x="50" y="2180" width="149" height="1"></rect>
            <rect id="Rectangle-Copy-164" fill="#7ED321" x="50" y="2190" width="149" height="1"></rect>
            <rect id="Rectangle-Copy-163" fill="#7ED321" x="50" y="2200" width="149" height="1"></rect>
            <rect id="Rectangle-Copy-162" fill="#7ED321" x="50" y="2210" width="149" height="1"></rect>
            <rect id="Rectangle-Copy-161" fill="#7ED321" x="50" y="2220" width="149" height="1"></rect>
            <rect id="Rectangle-Copy-160" fill="#7ED321" x="50" y="2230" width="149" height="1"></rect>
            <rect id="Rectangle-Copy-159" fill="#7ED321" x="50" y="2240" width="149" height="1"></rect>
            <rect id="Rectangle-Copy-158" fill="#7ED321" x="50" y="2250" width="149" height="1"></rect>
            <rect id="Rectangle-Copy-157" fill="#7ED321" x="50" y="2260" width="149" height="1"></rect>
            <rect id="Rectangle-Copy-156" fill="#7ED321" x="50" y="2270" width="149" height="1"></rect>
            <rect id="Rectangle-Copy-155" fill="#7ED321" x="50" y="2280" width="149" height="1"></rect>
            <rect id="Rectangle-Copy-154" fill="#7ED321" x="50" y="2290" width="149" height="1"></rect>
            <rect id="Rectangle-Copy-153" fill="#7ED321" x="50" y="2300" width="149" height="1"></rect>
            <rect id="Rectangle-Copy-152" fill="#7ED321" x="50" y="2310" width="149" height="1"></rect>
            <rect id="Rectangle-Copy-151" fill="#7ED321" x="50" y="2320" width="149" height="1"></rect>
            <rect id="Rectangle-Copy-150" fill="#7ED321" x="50" y="2330" width="149" height="1"></rect>
            <rect id="Rectangle-Copy-149" fill="#7ED321" x="50" y="2340" width="149" height="1"></rect>
            <rect id="Rectangle-Copy-148" fill="#7ED321" x="50" y="2350" width="149" height="1"></rect>
            <rect id="Rectangle-Copy-147" fill="#7ED321" x="50" y="2360" width="149" height="1"></rect>
            <rect id="Rectangle-Copy-146" fill="#7ED321" x="50" y="2370" width="149" height="1"></rect>
            <rect id="Rectangle-Copy-145" fill="#7ED321" x="50" y="2380" width="149" height="1"></rect>
            <rect id="Rectangle-Copy-144" fill="#7ED321" x="50" y="2390" width="149" height="1"></rect>
            <rect id="Rectangle-Copy-143" fill="#7ED321" x="50" y="2400" width="149" height="1"></rect>
            <rect id="Rectangle-Copy-142" fill="#7ED321" x="50" y="2410" width="149" height="1"></rect>
            <rect id="Rectangle-Copy-141" fill="#7ED321" x="50" y="2420" width="149" height="1"></rect>
            <rect id="Rectangle-Copy-140" fill="#7ED321" x="50" y="2430" width="149" height="1"></rect>
            <rect id="Rectangle-Copy-139" fill="#7ED321" x="50" y="2440" width="149" height="1"></rect>
            <rect id="Rectangle-Copy-138" fill="#7ED321" x="50" y="2450" width="149" height="1"></rect>
            <rect id="Rectangle-Copy-137" fill="#7ED321" x="50" y="2460" width="149" height="1"></rect>
            <rect id="Rectangle-Copy-136" fill="#7ED321" x="50" y="2470" width="149" height="1"></rect>
            <rect id="Rectangle-Copy-135" fill="#7ED321" x="50" y="2480" width="149" height="1"></rect>
            <rect id="Rectangle-Copy-134" fill="#7ED321" x="50" y="2490" width="149" height="1"></rect>
            <rect id="Rectangle-Copy-133" fill="#7ED321" x="50" y="2500" width="149" height="1"></rect>
            <rect id="Rectangle-Copy-132" fill="#7ED321" x="50" y="2510" width="149" height="1"></rect>
            <rect id="Rectangle-Copy-131" fill="#7ED321" x="50" y="2520" width="149" height="1"></rect>
            <rect id="Rectangle-Copy-130" fill="#7ED321" x="50" y="2530" width="149" height="1"></rect>
            <rect id="Rectangle-Copy-129" fill="#7ED321" x="50" y="2540" width="149" height="1"></rect>
            <rect id="Rectangle-Copy-128" fill="#7ED321" x="50" y="2550" width="149" height="1"></rect>
        </g>
    </g>
</svg>